<svg width="161" height="44" viewBox="0 0 161 44" fill="none" xmlns="http://www.w3.org/2000/svg">
<g clip-path="url(#clip0)">
<path d="M24.8992 10.3074L24.8909 22.6211C30.7348 22.6211 34.5642 16.7538 34.5642 10.895C34.5642 7.68859 33.1823 3.18115 29.3779 3.18115C25.8399 3.18115 24.9075 7.4116 24.8992 10.3074Z" fill="currentColor"/>
<path d="M35.1802 4.50732C37.02 7.15975 38.3686 12.3807 35.6964 17.8198C32.3998 24.5264 28.4372 25.7687 25.0574 26.7256V43.9999C35.6964 42.4722 43.8796 33.2727 43.8796 22.1258C43.8879 14.924 40.4581 8.54471 35.1802 4.50732Z" fill="currentColor"/>
<path d="M18.4143 26.1801C11.7295 24.4762 3.31324 17.6017 2.2893 16.7203H8.96572C11.7795 18.7852 15.3924 21.1019 18.4143 22.1091V12.9012C18.4143 10.8951 18.4143 6.14422 23.7671 2.64403C25.7816 1.32621 28.1542 1.21709 30.2104 1.63678C27.6547 0.587562 24.8659 0 21.944 0C9.82316 0 0 9.90462 0 22.1259C0 33.1301 7.97508 42.2373 18.4143 43.9412V26.1801Z" fill="currentColor"/>
<path d="M54.4103 5.53146H50.9473V21.3705H54.4103V5.53146Z" fill="currentColor"/>
<path d="M59.6716 21.3705V5.53146H63.0264L70.0691 16.1412V5.53146H73.2741V21.3705H69.8111L62.8766 10.9958V21.3705H59.6716Z" fill="currentColor"/>
<path d="M76.7206 16.2167L80.0921 15.9145C80.3002 16.9638 80.7081 17.7276 81.3241 18.2144C81.9485 18.7013 82.781 18.9447 83.8382 18.9447C84.9537 18.9447 85.7945 18.7264 86.3606 18.29C86.9267 17.8535 87.2097 17.3415 87.2097 16.7623C87.2097 16.3846 87.0932 16.0656 86.8518 15.8054C86.6103 15.5452 86.1941 15.3102 85.6031 15.1171C85.1951 14.9912 84.2711 14.7562 82.8309 14.4288C80.9745 14.0008 79.6675 13.4803 78.9266 12.8592C77.8694 11.9863 77.3449 10.9287 77.3449 9.66959C77.3449 8.86379 77.5947 8.10835 78.0858 7.40328C78.5853 6.71499 79.2929 6.17779 80.2253 5.80847C81.1577 5.43914 82.2815 5.25448 83.6051 5.25448C85.7612 5.25448 87.3762 5.69096 88.4668 6.56391C89.5573 7.43685 90.1234 8.60358 90.1816 10.0557L86.7186 10.1984C86.5687 9.3842 86.2524 8.79664 85.7612 8.4441C85.2701 8.09157 84.5458 7.9069 83.5635 7.9069C82.5562 7.9069 81.7654 8.09996 81.1993 8.47768C80.833 8.7211 80.6498 9.04845 80.6498 9.45975C80.6498 9.83747 80.8163 10.1564 81.166 10.425C81.6072 10.7608 82.6644 11.1133 84.346 11.4826C86.0276 11.852 87.2763 12.2297 88.0838 12.6242C88.8913 13.0187 89.524 13.5559 89.9818 14.2358C90.4397 14.9157 90.6645 15.7551 90.6645 16.7539C90.6645 17.6604 90.3898 18.5166 89.8487 19.3056C89.2992 20.0946 88.5334 20.6906 87.5344 21.0767C86.5354 21.4628 85.295 21.6559 83.8049 21.6559C81.6322 21.6559 79.9672 21.1942 78.8101 20.2625C77.6446 19.3392 76.9537 17.9878 76.7206 16.2167Z" fill="currentColor"/>
<path d="M97.216 21.3705V8.20907H92.1296V5.53146H105.757V8.20907H100.679V21.3705H97.216Z" fill="currentColor"/>
<path d="M111.876 5.53146H108.413V21.3705H111.876V5.53146Z" fill="currentColor"/>
<path d="M119.651 21.3705V8.20907H114.565V5.53146H128.192V8.20907H123.114V21.3705H119.651Z" fill="currentColor"/>
<path d="M130.515 5.53146H133.978V14.1099C133.978 15.4697 134.02 16.351 134.103 16.7539C134.253 17.4002 134.602 17.9206 135.16 18.3151C135.718 18.7096 136.484 18.9027 137.449 18.9027C138.432 18.9027 139.173 18.718 139.672 18.3487C140.172 17.9794 140.471 17.5261 140.571 16.9805C140.671 16.4433 140.721 15.5452 140.721 14.2861V5.53146H144.184V13.8497C144.184 15.755 144.092 17.098 143.901 17.8787C143.718 18.6677 143.368 19.3308 142.869 19.868C142.369 20.4052 141.695 20.8416 140.846 21.1606C140.005 21.4796 138.906 21.6391 137.549 21.6391C135.909 21.6391 134.669 21.4628 133.82 21.1186C132.971 20.7661 132.305 20.3128 131.814 19.7589C131.322 19.1965 130.998 18.6173 130.84 18.0046C130.615 17.098 130.498 15.755 130.498 13.984V5.53146H130.515Z" fill="currentColor"/>
<path d="M151.468 21.3705V8.20907H146.382V5.53146H160.018V8.20907H154.931V21.3705H151.468Z" fill="currentColor"/>
<path d="M54.4103 29.1179V33.6253H56.3001C57.6653 33.6253 58.5727 33.5414 59.0306 33.3735C59.4884 33.2056 59.8464 32.9454 60.1128 32.5929C60.3708 32.2404 60.504 31.8291 60.504 31.359C60.504 30.7799 60.3209 30.3014 59.9546 29.9321C59.5883 29.5544 59.1221 29.3193 58.5644 29.227C58.1481 29.1515 57.324 29.1179 56.0753 29.1179H54.4103ZM50.9473 42.2709V26.4319H56.4999C58.606 26.4319 59.9796 26.5074 60.6123 26.6669C61.5946 26.9019 62.4187 27.4224 63.0764 28.2198C63.7424 29.0172 64.067 30.0412 64.067 31.3087C64.067 32.2823 63.8755 33.0965 63.4926 33.7596C63.1097 34.4227 62.6268 34.9432 62.0358 35.3209C61.4447 35.6986 60.8454 35.9504 60.2376 36.0763C59.4135 36.2274 58.2147 36.3029 56.6497 36.3029H54.3937V42.2793H50.9473V42.2709Z" fill="currentColor"/>
<path d="M74.1815 36.0008L71.8173 30.1335L69.4947 36.0008H74.1815ZM80.5583 42.2709H76.7872L75.2887 38.67H68.4292L67.0056 42.2709H63.3344L70.0192 26.4319H73.6904L80.5583 42.2709Z" fill="currentColor"/>
<path d="M81.0494 37.1172L84.421 36.815C84.6291 37.8642 85.037 38.628 85.653 39.1149C86.2774 39.6017 87.1098 39.8451 88.1671 39.8451C89.2826 39.8451 90.1234 39.6269 90.6895 39.1904C91.2555 38.7539 91.5386 38.2419 91.5386 37.6627C91.5386 37.285 91.422 36.9661 91.1806 36.7059C90.9392 36.4457 90.523 36.2106 89.9319 36.0176C89.524 35.8917 88.6 35.6566 87.1598 35.3293C85.3034 34.9012 84.0047 34.3808 83.2555 33.7597C82.1983 32.8867 81.6738 31.8291 81.6738 30.57C81.6738 29.7642 81.9235 29.0088 82.4147 28.3037C82.9058 27.5986 83.6218 27.0698 84.5541 26.7005C85.4865 26.3312 86.6103 26.1465 87.934 26.1465C90.0901 26.1465 91.7051 26.583 92.7956 27.456C93.8862 28.3289 94.4522 29.4956 94.5105 30.9477L91.0474 31.0904C90.8976 30.2762 90.5812 29.6887 90.0901 29.3362C89.5989 28.9836 88.8747 28.799 87.8924 28.799C86.8851 28.799 86.0942 28.992 85.5281 29.3697C85.1618 29.6131 84.9787 29.9405 84.9787 30.3518C84.9787 30.7295 85.1452 31.0485 85.4948 31.3171C85.936 31.6528 86.9933 32.0054 88.6749 32.3747C90.3565 32.744 91.6052 33.1217 92.4127 33.5162C93.2202 33.9107 93.8529 34.4479 94.3107 35.1278C94.7686 35.8077 94.9933 36.6471 94.9933 37.646C94.9933 38.5525 94.7186 39.4086 94.1775 40.1977C93.6281 40.9867 92.8622 41.5826 91.8632 41.9687C90.8643 42.3548 89.6239 42.5479 88.1338 42.5479C85.961 42.5479 84.2961 42.0862 83.1389 41.1545C81.9735 40.2396 81.2742 38.8966 81.0494 37.1172Z" fill="currentColor"/>
<path d="M101.054 42.2709V29.1179H95.959V26.4319H109.595V29.1179H104.517V42.2709H101.054Z" fill="currentColor"/>
<path d="M112.284 42.2709V26.4319H124.996V29.1179H115.747V32.6265H124.355V35.3041H115.747V39.5933H125.32V42.2709H112.284Z" fill="currentColor"/>
<path d="M128.234 26.4319H131.697V35.0103C131.697 36.3701 131.739 37.2514 131.822 37.6543C131.972 38.3007 132.321 38.8211 132.879 39.2156C133.437 39.6101 134.203 39.8031 135.168 39.8031C136.151 39.8031 136.892 39.6185 137.391 39.2491C137.891 38.8798 138.19 38.4266 138.29 37.881C138.39 37.3438 138.44 36.4456 138.44 35.1866V26.4319H141.903V34.7501C141.903 36.6555 141.812 37.9985 141.62 38.7791C141.437 39.5681 141.087 40.2312 140.588 40.7684C140.088 41.3056 139.414 41.7421 138.565 42.0611C137.724 42.38 136.625 42.5395 135.268 42.5395C133.628 42.5395 132.388 42.3632 131.539 42.0191C130.69 41.6665 130.024 41.2133 129.533 40.6593C129.041 40.0969 128.717 39.5177 128.559 38.905C128.334 37.9985 128.217 36.6555 128.217 34.8844V26.4319H128.234Z" fill="currentColor"/>
<path d="M149.046 33.1301H151.61C153.275 33.1301 154.307 33.063 154.723 32.9371C155.139 32.8111 155.456 32.5845 155.697 32.2655C155.93 31.9466 156.047 31.5521 156.047 31.0736C156.047 30.5364 155.889 30.1084 155.589 29.781C155.281 29.4536 154.848 29.2438 154.282 29.1599C153.999 29.1263 153.158 29.1095 151.751 29.1095H149.046V33.1301ZM145.583 42.2709V26.4319H152.875C154.707 26.4319 156.038 26.5746 156.871 26.86C157.703 27.1454 158.369 27.649 158.869 28.3792C159.368 29.1095 159.618 29.9405 159.618 30.8722C159.618 32.0641 159.243 33.0462 158.486 33.8184C157.728 34.5906 156.596 35.0775 155.098 35.2789C155.847 35.6818 156.463 36.1267 156.954 36.6051C157.445 37.092 158.103 37.9481 158.927 39.1736L161.025 42.2625H156.888L154.382 38.8127C153.491 37.5788 152.883 36.8066 152.559 36.4876C152.234 36.1686 151.884 35.9504 151.518 35.8245C151.152 35.707 150.569 35.6482 149.77 35.6482H149.071V42.2625H145.583V42.2709Z" fill="currentColor"/>
</g>
<defs>
<clipPath id="clip0">
<rect width="161" height="44" fill="white"/>
</clipPath>
</defs>
</svg>
